# xmcd CD database file
#
# Track frame offsets:
#	150
#	12130
#	29160
#	44365
#	53642
#	70122
#	81602
#	92787
#	100785
#	110512
#	126695
#	139375
#	154360
#	169217
#	179227
#	192000
#	199909
#	216222
#	229375
#	243272
#
# Disc length: 3384 seconds
#
# Revision: 0
# Processed by: cddbd v1.4PL0 Copyright (c) Steve Scherf et al.
# Submitted via: CDex 1.40Beta8
#
DISCID=340d3614
DTITLE=Black Hills Country Band - Black Hills Country Band
DYEAR=1900
DGENRE=Country
TTITLE0=One thin dime
TTITLE1=Till a tear becomes a rose
TTITLE2=Achy breaky heart
TTITLE3=Louisiana saturday night
TTITLE4=Saddle the wind
TTITLE5=Something stupid
TTITLE6=We shall not be moved
TTITLE7=Thibodeaux and his Cajun band
TTITLE8=Pistol packin' mama
TTITLE9=Silver moon
TTITLE10=Take me back to Tulsa
TTITLE11=Heartaches by the number
TTITLE12=Darling
TTITLE13=Do you right tonight
TTITLE14=I wish it would rain
TTITLE15=Sugar time
TTITLE16=If tomorrow never comes
TTITLE17=My shoes keep walking back
TTITLE18=La fete
TTITLE19=Diggy Liggy Lo
EXTD=ID3G: 2
EXTT0=
EXTT1=
EXTT2=
EXTT3=
EXTT4=
EXTT5=
EXTT6=
EXTT7=
EXTT8=
EXTT9=
EXTT10=
EXTT11=
EXTT12=
EXTT13=
EXTT14=
EXTT15=
EXTT16=
EXTT17=
EXTT18=
EXTT19=
PLAYORDER=
